HIERARCHY
ROOT Hips
{
	OFFSET -3.958830 18.904000 13.208200
	CHANNELS 6 Xposition Yposition Zposition Zrotation Yrotation Xrotation 
	JOINT LHipJoint
	{
		OFFSET 0.000000 0.000000 0.000000
		CHANNELS 3 Zrotation Yrotation Xrotation
		JOINT LeftUpLeg
		{
			OFFSET 1.800000 -1.400000 0.085000
			CHANNELS 3 Zrotation Yrotation Xrotation
			JOINT LeftLeg
			{
				OFFSET 2.215000 -6.000000 0.000000
				CHANNELS 3 Zrotation Yrotation Xrotation
				JOINT LeftFoot
				{
					OFFSET 2.500000 -6.900000 0.000000
					CHANNELS 3 Zrotation Yrotation Xrotation
					JOINT LeftToeBase
					{
						OFFSET 0.200000 -0.500000 1.950000
						CHANNELS 3 Zrotation Yrotation Xrotation
						End Site
						{
							OFFSET 0.000000 0.000000 0.000000
						}
					}
				}
			}
		}
	}
	JOINT RHipJoint
	{
		OFFSET 0.000000 0.000000 0.000000
		CHANNELS 3 Zrotation Yrotation Xrotation
		JOINT RightUpLeg
		{
			OFFSET -1.800000 -1.400000 0.085000
			CHANNELS 3 Zrotation Yrotation Xrotation
			JOINT RightLeg
			{
				OFFSET -2.215000 -6.000000 0.000000
				CHANNELS 3 Zrotation Yrotation Xrotation
				JOINT RightFoot
				{
					OFFSET -2.500000 -6.900000 0.000000
					CHANNELS 3 Zrotation Yrotation Xrotation
					JOINT RightToeBase
					{
						OFFSET -0.200000 -0.500000 1.950000
						CHANNELS 3 Zrotation Yrotation Xrotation
						End Site
						{
							OFFSET 0.000000 0.000000 0.000000
						}
					}
				}
			}
		}
	}
	JOINT LowerBack
	{
		OFFSET 0.000000 0.000000 0.000000
		CHANNELS 3 Zrotation Yrotation Xrotation
		JOINT Spine
		{
			OFFSET -0.087000 1.940000 -0.288900
			CHANNELS 3 Zrotation Yrotation Xrotation
			JOINT Spine1
			{
				OFFSET 0.000000 1.950000 0.060000
				CHANNELS 3 Zrotation Yrotation Xrotation
				JOINT Neck
				{
					OFFSET 0.000000 0.000000 0.000000
					CHANNELS 3 Zrotation Yrotation Xrotation
					JOINT Neck1
					{
						OFFSET 0.000000 1.600000 0.340000
						CHANNELS 3 Zrotation Yrotation Xrotation
						JOINT Head
						{
							OFFSET 0.000000 1.667000 -0.240000
							CHANNELS 3 Zrotation Yrotation Xrotation
							End Site
							{
								OFFSET 0.000000 0.000000 0.000000
							}
						}
					}
				}
				JOINT LeftShoulder
				{
					OFFSET 0.000000 0.000000 0.000000
					CHANNELS 3 Zrotation Yrotation Xrotation
					JOINT LeftArm
					{
						OFFSET 2.700000 1.550000 -0.730000
						CHANNELS 3 Zrotation Yrotation Xrotation
						JOINT LeftForeArm
						{
							OFFSET 5.450000 0.000000 0.000000
							CHANNELS 3 Zrotation Yrotation Xrotation
							JOINT LeftHand
							{
								OFFSET 3.450000 0.000000 0.000000
								CHANNELS 3 Zrotation Yrotation Xrotation
								JOINT LeftHandIndex1
								{
									OFFSET 0.750000 0.000000 0.000000
									CHANNELS 3 Zrotation Yrotation Xrotation
									End Site
									{
										OFFSET 0.000000 0.000000 0.000000
									}
								}
							}
						}
					}
				}
				JOINT RightShoulder
				{
					OFFSET 0.000000 0.000000 0.000000
					CHANNELS 3 Zrotation Yrotation Xrotation
					JOINT RightArm
					{
						OFFSET -2.700000 1.550000 -0.730000
						CHANNELS 3 Zrotation Yrotation Xrotation
						JOINT RightForeArm
						{
							OFFSET -5.450000 0.000000 0.000000
							CHANNELS 3 Zrotation Yrotation Xrotation
							JOINT RightHand
							{
								OFFSET -3.450000 0.000000 0.000000
								CHANNELS 3 Zrotation Yrotation Xrotation
								JOINT RightHandIndex1
								{
									OFFSET -0.750000 0.000000 0.000000
									CHANNELS 3 Zrotation Yrotation Xrotation
									End Site
									{
										OFFSET 0.000000 0.000000 0.000000
									}
								}
							}
						}
					}
				}
			}
		}
	}
}
MOTION
Frames: 11
Frame Time: 0.016667
-1.006400 13.509430 0.393910 -58.944430 -9.143407 -16.906984 -15.138722 11.309621 3.455239 -1.485580 -5.849665 -33.134086 11.341737 11.481761 80.077140 1.484759 13.701045 -0.245488 0.269090 0.052540 0.532550 18.638359 -8.280568 5.319822 -13.709371 19.076549 -31.551391 42.882933 -39.386595 62.490004 -3.109722 -14.462716 -0.325832 0.006360 -0.067160 0.172480 -4.222139 -1.101115 -9.350700 15.805323 -5.435971 52.234830 -17.436395 5.212007 20.282496 8.394951 3.105608 -20.135558 2.485402 8.153807 51.674237 1.237040 10.300710 -10.605960 -12.918555 -28.170499 11.630084 -17.669575 -1.502527 -1.583187 11.746119 -2.937368 -1.045752 -3.726558 2.716435 0.770890 -0.119710 0.303580 -0.115150 -4.950761 27.328932 12.148491 15.926311 2.887927 -11.605980 -14.336449 31.950226 -3.734469 1.979223 -1.308033 -0.246850 0.099840 0.015500 -0.260850 
-1.021620 13.483950 0.474460 -59.302114 -10.149545 -19.065185 -15.191943 11.117871 3.511952 0.230620 -5.725393 -35.272512 9.765296 13.485237 80.823078 1.452549 14.199242 -0.381223 0.191000 -0.044100 0.476780 18.630725 -7.926592 5.513139 -16.999785 19.058798 -34.408818 55.979932 -42.665180 54.268880 -3.019534 -13.958507 -0.182821 0.009860 0.080320 0.179320 -4.180550 -1.302501 -9.438827 15.969959 -5.854871 51.993878 -17.334964 4.514140 21.473887 9.214526 1.649007 -19.185026 0.172105 10.676276 50.455406 1.052130 11.121540 -9.530820 -12.016825 -26.939981 11.554618 -20.364817 -1.246705 -1.375699 12.145501 -2.675790 -1.125643 -3.856161 2.634575 0.754090 -0.018510 0.218190 -0.136560 -7.160137 26.738206 11.157673 14.254133 5.440924 -12.200805 -18.344731 32.735804 -5.092764 1.915264 -1.292498 -0.331870 0.196600 0.115250 -0.263710 
-1.024460 13.431230 0.582490 -59.130541 -11.166341 -21.066953 -15.185525 10.879957 3.561517 2.802058 -5.082392 -36.551081 6.664176 16.780871 80.543658 1.525590 14.640474 -0.501414 0.238190 0.029660 0.445070 18.667720 -7.768736 5.648504 -20.148453 18.242407 -37.204376 71.521500 -44.840872 44.516751 -2.927712 -13.226827 0.019409 0.074920 0.136730 0.202790 -4.287219 -1.100208 -9.508651 17.418194 -6.326869 51.082160 -18.053035 4.219330 21.767556 9.914609 0.792903 -17.828912 -1.106162 11.643902 50.010673 1.211680 10.589820 -8.400300 -13.192667 -25.290989 10.776273 -19.974234 -2.613372 -0.451674 10.748040 -1.049716 -0.928803 -3.920612 2.656380 0.684500 0.030060 0.186030 -0.084000 -7.187737 25.322162 9.595625 12.201603 8.051870 -12.736315 -22.054120 34.848612 -6.806987 1.884103 -1.359663 -0.311960 0.208000 0.101050 -0.220990 
-1.060860 13.394530 0.692930 -56.746097 -10.868877 -23.715102 -15.278273 10.757741 3.716736 0.922030 -5.832076 -38.389151 6.023716 17.643433 80.794625 1.543206 14.863094 -0.547609 0.278880 0.095200 0.430670 18.620679 -7.536519 5.658775 -23.287347 16.643543 -38.295715 81.858412 -42.248882 36.061046 -2.777991 -12.448562 0.221590 0.144940 0.193810 0.199910 -4.098111 -1.370493 -9.583290 14.524827 -4.636871 50.931864 -16.448545 4.023178 21.759354 9.624653 -0.335192 -16.046837 -2.478672 12.627260 48.469025 1.763580 10.121380 -9.126930 -12.154564 -23.192435 10.182857 -22.258279 -3.831203 -0.013357 10.569618 -1.271498 -0.969153 -3.936952 2.663845 0.656500 0.057610 0.161360 -0.049920 -7.467647 24.305664 7.925610 11.213928 12.236515 -13.626560 -29.441347 36.124544 -10.315305 1.879877 -1.356288 -0.326440 0.266350 0.100770 -0.195240 
-1.047640 13.322940 0.816190 -55.506285 -11.172061 -25.548820 -15.303993 10.677770 3.868106 -5.271457 -7.624657 -41.187699 13.535985 10.358720 80.004672 1.342715 13.761711 -0.248421 0.312730 0.139740 0.416120 18.621101 -7.492493 5.667402 -24.308026 14.871794 -37.106167 92.936680 -37.962062 27.088732 -2.638465 -11.696532 0.428655 0.172640 0.151710 0.161500 -4.081436 -1.373052 -9.634896 14.357418 -4.406770 50.444209 -16.073706 4.094176 20.927055 9.628769 -0.863671 -15.828032 -3.513772 12.432737 49.189959 2.156660 9.059140 -7.586720 -13.960617 -23.020371 10.313341 -22.810351 -2.889619 -0.145345 10.498455 -1.764641 -0.916562 -3.852794 2.770581 0.613220 0.029270 0.133800 -0.032320 -5.657967 25.232821 7.084961 9.868636 13.720852 -15.394223 -35.441751 38.712021 -13.640860 1.898750 -1.393657 -0.303910 0.219760 0.063540 -0.184570 
-0.989430 13.270420 0.946830 -54.608478 -14.011751 -27.638251 -15.223053 10.606348 3.879715 -7.232171 -7.286661 -43.690405 18.110879 5.683486 75.361438 1.026518 12.756723 0.022787 0.345620 0.170070 0.412160 18.676311 -7.702822 5.626653 -22.254320 15.332563 -34.043972 100.532695 -35.898602 22.575328 -2.613865 -11.414205 0.507416 0.225730 0.188030 0.142750 -4.357809 -0.800867 -9.538921 16.764332 -5.299609 49.774833 -17.896373 4.410101 21.554584 10.460013 -2.466317 -15.651803 -6.562103 13.775253 49.976329 2.274310 7.802080 -7.433540 -15.753035 -22.757105 10.284192 -23.655858 -1.989612 -0.268503 11.573486 -1.327418 -0.951365 -3.850741 2.767973 0.614690 0.032710 0.110630 -0.005430 -5.306717 26.437966 5.766636 7.639944 17.635956 -15.933352 -38.805747 37.856816 -15.226044 1.927251 -1.407259 -0.334100 0.279270 0.065790 -0.174010 
-0.923030 13.223090 1.082310 -52.492860 -13.268453 -30.732889 -15.249129 10.493602 4.100391 -10.298760 -8.535207 -44.728422 20.302677 2.704351 69.408892 0.831550 11.540194 0.336359 0.484420 0.381910 0.460410 18.636137 -7.636631 5.537831 -23.898089 13.753032 -27.557345 105.434086 -31.813425 17.626683 -2.555184 -10.791665 0.644874 0.302980 0.100860 0.181930 -4.254761 -0.956441 -9.551110 15.472802 -5.146757 50.245466 -17.643986 3.697113 22.757212 10.749140 -3.134731 -15.505621 -7.860222 14.639831 51.341955 2.346780 7.273160 -9.469840 -16.549577 -23.615186 11.085504 -25.387121 -0.662783 -0.732680 12.830221 -1.227411 -0.929089 -3.755837 2.892142 0.581890 -0.018020 0.203820 0.033890 -4.868091 28.102362 4.601290 5.838096 20.145466 -17.237130 -42.032183 39.440284 -17.581260 1.955228 -1.422518 -0.209870 0.238440 -0.015290 -0.121440 
-0.866350 13.200760 1.192640 -50.283802 -13.454068 -34.189404 -15.283334 10.650661 4.162253 -12.775443 -8.525829 -45.113201 23.243109 0.189557 61.208305 0.504813 10.129355 0.726902 0.546710 0.445540 0.528640 18.550122 -7.662340 5.450507 -25.634367 13.124442 -21.878986 110.283085 -32.694547 15.844322 -2.568712 -10.600862 0.650980 0.330310 0.030100 0.199190 -4.063597 -1.332893 -9.485677 13.915555 -4.368125 52.124598 -17.423563 3.777814 24.064843 11.217291 -3.383286 -16.394967 -9.076354 14.787468 53.024365 1.729380 6.313940 -11.662930 -18.059478 -25.944315 12.467584 -25.341744 1.664573 -0.909016 12.581046 -0.758449 -0.868565 -3.682448 2.895461 0.626700 -0.074750 0.272190 0.017960 -4.299042 31.527755 3.866389 1.720062 20.044937 -19.681580 -43.962308 40.223548 -18.672402 2.034015 -1.437575 -0.176690 0.240620 -0.034060 -0.128830 
-0.887060 13.195420 1.271000 -43.666139 -15.190052 -37.421800 -15.499150 10.939276 3.999798 -15.780628 -7.410081 -47.080732 25.983484 -0.208072 52.840124 0.150679 8.816232 1.070386 0.591540 0.492140 0.548740 18.351413 -7.198028 5.694945 -31.006790 14.455831 -21.411875 112.477604 -31.890017 15.650807 -2.542420 -10.482689 0.632271 0.389230 -0.004110 0.205120 -3.469231 -2.337399 -9.508864 6.029224 1.952662 53.035465 -14.223250 6.381253 24.911579 10.271737 -3.938605 -16.754081 -10.281201 15.925846 52.633923 3.123920 6.380030 -12.695890 -16.558449 -27.268682 13.358350 -28.556466 2.339040 -0.967210 12.609520 -0.099271 -0.816322 -3.657523 2.943096 0.656150 -0.103760 0.283050 -0.006770 -4.496783 35.939533 3.468940 -0.640113 20.431472 -22.747445 -50.077582 41.695047 -22.783377 2.206590 -1.512584 -0.183140 0.227360 -0.019360 -0.146820 
-0.889560 13.200530 1.341140 -38.169820 -15.897639 -41.052931 -15.663611 11.079517 3.865928 -18.190955 -6.744548 -49.208546 29.827128 -0.827279 46.760535 0.061077 8.076875 1.291905 0.646690 0.547360 0.577220 18.238238 -6.722548 5.994811 -37.018051 16.064812 -20.691111 111.269994 -28.349795 14.989117 -2.495606 -10.166155 0.692891 0.397490 -0.041340 0.249310 -3.052456 -3.052188 -9.575443 0.929104 7.024901 54.127656 -11.862722 8.695528 24.877683 9.520942 -3.409102 -16.897882 -9.245321 15.385343 54.415326 4.051640 6.153860 -13.246750 -17.957614 -28.725220 14.271347 -27.629943 3.375962 -0.870086 11.823523 -0.510795 -0.819707 -3.591834 3.007208 0.665930 -0.134960 0.334770 0.014200 -2.266515 39.669869 2.544618 -3.510782 20.998895 -24.379129 -53.836224 45.169158 -25.798548 2.436844 -1.530040 -0.128840 0.184900 -0.055040 -0.128420 
-0.880120 13.154870 1.437560 -36.719220 -16.757911 -42.758182 -15.654719 10.968898 4.030241 -20.827737 -7.153723 -53.158912 40.035232 -3.506738 41.097387 0.209855 8.527243 1.135256 0.672000 0.572190 0.555660 18.255053 -6.741514 5.869685 -37.624206 17.167662 -19.989325 112.529348 -30.539442 15.757618 -2.533961 -10.330657 0.628599 0.411750 -0.015060 0.297910 -3.112201 -2.821686 -9.633669 2.304003 7.163117 54.560554 -12.246623 9.100022 24.866755 9.788887 -3.958468 -16.919792 -10.313217 16.599238 55.216033 5.569730 5.875800 -12.649590 -19.453804 -30.494885 15.746012 -27.849190 4.849952 -0.671966 11.623300 -0.491935 -0.800999 -3.567615 3.084190 0.654890 -0.124200 0.340740 0.033550 -1.340632 42.803178 0.278199 -6.414765 23.315068 -24.553336 -55.835123 47.605999 -27.205862 2.606891 -1.524745 -0.099240 0.163720 -0.047900 -0.097270 
